<svg id="Discord" xmlns="http://www.w3.org/2000/svg" width="35" height="26" viewBox="0 0 35 26">
  <metadata><?xpacket begin="﻿" id="W5M0MpCehiHzreSzNTczkc9d"?>
<x:xmpmeta xmlns:x="adobe:ns:meta/" x:xmptk="Adobe XMP Core 5.6-c142 79.160924, 2017/07/13-01:06:39        ">
   <rdf:RDF xmlns:rdf="http://www.w3.org/1999/02/22-rdf-syntax-ns#">
      <rdf:Description rdf:about=""/>
   </rdf:RDF>
</x:xmpmeta>
                                                                                                    
                                                                                                    
                                                                                                    
                                                                                                    
                                                                                                    
                                                                                                    
                                                                                                    
                                                                                                    
                                                                                                    
                                                                                                    
                                                                                                    
                                                                                                    
                                                                                                    
                                                                                                    
                                                                                                    
                                                                                                    
                                                                                                    
                                                                                                    
                                                                                                    
                                                                                                    
                           
<?xpacket end="w"?></metadata>
<defs>
    <style>
      .cls-1 {
        fill: #fff;
        fill-rule: evenodd;
      }
    </style>
  </defs>
  <g id="_14px_Padding" data-name="14px Padding">
    <path class="cls-1" d="M12.755,0a0.631,0.631,0,0,0,.1.195V0.243h0.024V0.292H12.9V0.341h0.024V0.389h0.024V0.438H12.97V0.487a1.412,1.412,0,0,1,.167.341,1.606,1.606,0,0,0-.477.122L12.374,1V1.022L12.04,1.1V1.12l-0.167.024V1.168H11.8V1.193H11.73V1.217H11.659V1.242H11.587V1.266h-0.1V1.29H11.42V1.315H11.349V1.339H11.277V1.363H11.206V1.388H11.158V1.412l-0.215.049V1.485H10.9V1.509l-0.143.024V1.558H10.705V1.582H10.634V1.607H10.586V1.631l-0.119.024V1.68H10.4V1.7H10.347V1.728H10.276V1.753l-0.1.024V1.8H10.109V1.826l-0.1.024V1.875H9.966V1.9H9.894V1.923H9.847V1.947l-0.1.024V2l-0.1.024V2.045H9.608V2.069H9.561V2.094H9.513V2.118H9.465V2.142l-0.1.024V2.191l-0.1.024V2.24H9.227V2.264H9.179V2.288H9.131V2.313H9.084V2.337H9.036V2.361l-0.1.024-0.024.049H8.869V2.459H8.822V2.483H8.774V2.507H8.726L8.7,2.556l-0.1.024-0.024.049L8.44,2.678l-0.024.049H8.369V2.751H8.321V2.775L8.249,2.8l-0.024.049-0.1.024-0.024.049H8.059L8.035,2.97H7.987l-0.024.049H7.916l-0.024.049H7.844L7.82,3.116H7.772V3.14L7.7,3.165l-0.024.049H7.629V3.238l-0.072.024-0.024.049H7.486l-0.048.073H7.391l-0.048.073H7.3l-0.024.049H7.224l-0.048.073H7.129l-0.048.073H7.033l-0.048.073H6.938l-0.072.1-0.072.024L6.771,3.9H6.723l-0.072.1H6.6l-0.1.122H6.461l-0.024.049H6.413L6.39,4.212H6.342l-0.048.073H6.27l-0.024.049H6.2L6.056,4.5H6.008l-0.143.17a0.31,0.31,0,0,0-.143.122H5.746V4.771l0.1-.024V4.723H5.889V4.7H5.937V4.674H5.984V4.65H6.032V4.625l0.1-.024V4.577l0.1-.024V4.528l0.1-.024V4.479H6.366V4.455H6.413V4.431H6.461V4.406H6.509V4.382l0.143-.049V4.309l0.1-.024V4.26l0.1-.024V4.212H6.89V4.187H6.938V4.163H6.986V4.138H7.033V4.114H7.081V4.09l0.143-.049V4.017l0.1-.024V3.968H7.391V3.944H7.439V3.919H7.486V3.9l0.143-.049V3.822H7.7V3.8H7.749V3.773H7.8V3.749L7.939,3.7V3.676H8.011V3.652H8.059V3.627l0.1-.024V3.579H8.225V3.554l0.1-.024V3.506H8.392V3.481l0.1-.024V3.433H8.559V3.408l0.1-.024V3.359l0.429-.146V3.189H9.131V3.165H9.2V3.14H9.251V3.116L9.37,3.092V3.067l0.143-.024V3.019H9.561V2.994l1.6-.536h0.1c0.285-.1.637-0.171,0.93-0.268H12.3V2.167h0.1V2.142h0.119c0.182-.059.409-0.089,0.6-0.146L13.4,1.972V1.947l0.286-.024V1.9l0.334-.024V1.85H14.21V1.826h0.167V1.8h0.191V1.777h0.238V1.753h0.262V1.728H15.33V1.7L16.07,1.68c0.13-.037.356,0.017,0.5-0.024V1.631h1.24a2.72,2.72,0,0,1,.62.024c0.144,0.042.371-.013,0.5,0.024L19.67,1.7V1.728h0.262V1.753h0.262V1.777h0.238l1.6,0.243c0.2,0.064.466,0.1,0.668,0.17h0.119c0.207,0.069.462,0.123,0.668,0.195L23.675,2.41c0.345,0.127.739,0.229,1.073,0.365l0.5,0.146V2.946H25.3V2.97l0.143,0.024V3.019h0.048V3.043h0.072V3.067H25.63V3.092h0.048V3.116h0.072V3.14H25.8V3.165l0.119,0.024V3.213h0.072V3.238h0.048V3.262h0.072V3.287h0.048V3.311h0.072V3.335h0.048V3.359h0.072V3.384l0.1,0.024V3.433h0.072V3.457l0.1,0.024V3.506h0.071V3.53l0.1,0.024V3.579h0.072V3.6h0.048V3.627l0.1,0.024V3.676h0.072V3.7h0.048V3.725h0.048V3.749L27.3,3.8V3.822h0.072V3.846h0.048V3.871h0.048V3.9l0.143,0.049V3.968h0.071V3.992l0.143,0.049V4.066h0.048V4.09h0.048V4.114h0.048V4.138h0.048V4.163l0.1,0.024V4.212h0.048V4.236h0.048V4.26h0.048V4.285H28.3V4.309l0.1,0.024c0.285,0.156.583,0.321,0.882,0.463L29.159,4.65H29.111l-0.143-.17H28.92l-0.143-.17H28.73L28.706,4.26H28.682l-0.048-.073H28.587l-0.024-.049H28.539L28.515,4.09H28.467l-0.1-.122H28.324l-0.072-.1H28.205l-0.071-.1H28.086l-0.1-.122H27.943L27.9,3.579H27.847L27.8,3.506l-0.072-.024L27.7,3.433H27.657l-0.024-.049H27.585l-0.048-.073H27.49V3.287l-0.072-.024-0.024-.049H27.347L27.3,3.14H27.251l-0.024-.049H27.18l-0.024-.049H27.108l-0.024-.049H27.037l-0.024-.049-0.1-.024V2.9l-0.072-.024-0.024-.049-0.1-.024L26.7,2.751l-0.1-.024-0.024-.049-0.1-.024L26.465,2.6l-0.1-.024-0.024-.049H26.3V2.507H26.25V2.483H26.2V2.459H26.155V2.434H26.107l-0.024-.049H26.035V2.361H25.988V2.337H25.94V2.313H25.892V2.288H25.845V2.264H25.8V2.24l-0.1-.024V2.191H25.654V2.167H25.606V2.142H25.559V2.118H25.511V2.094H25.463V2.069l-0.1-.024V2.021H25.32V2H25.249V1.972H25.2V1.947l-0.1-.024V1.9H25.034V1.875l-0.1-.024V1.826H24.867V1.8l-0.1-.024V1.753H24.7V1.728H24.653V1.7H24.581V1.68H24.533V1.655l-0.119-.024V1.607l-0.143-.024V1.558H24.223V1.534l-0.215-.049V1.461H23.961V1.436H23.89V1.412H23.818V1.388H23.747V1.363H23.675V1.339H23.6V1.315H23.532V1.29H23.461V1.266H23.389V1.242H23.317V1.217H23.246V1.193l-0.167-.024V1.144L22.841,1.1V1.071h-0.1V1.047H22.674V1.022h-0.1V1H22.507V0.974h-0.1V0.949h-0.1V0.925h-0.1V0.9h-0.1A0.881,0.881,0,0,0,21.863.828a0.631,0.631,0,0,1,.1-0.195V0.584h0.024V0.536h0.024V0.487H22.03V0.438h0.024V0.389h0.024V0.341A1.414,1.414,0,0,0,22.245,0l0.739,0.073V0.1l0.453,0.049V0.17L23.7,0.195V0.219h0.119C23.93,0.257,24.087.3,24.2,0.341l0.215,0.024V0.389L24.6,0.414V0.438l0.167,0.024V0.487h0.072V0.511h0.072V0.536h0.072V0.56l0.238,0.049V0.633h0.1V0.657h0.072V0.682h0.048V0.706h0.072V0.73h0.072V0.755h0.072V0.779h0.072V0.8h0.048V0.828l0.215,0.049V0.9h0.048V0.925h0.072V0.949h0.048V0.974L26.274,1V1.022h0.072V1.047h0.048V1.071h0.072V1.1h0.048V1.12h0.072V1.144l0.1,0.024V1.193h0.072V1.217H26.8V1.242L26.941,1.29V1.315h0.071V1.339l0.143,0.049V1.412l0.119,0.024V1.461h0.048V1.485l0.1,0.024V1.534h0.048V1.558h0.048V1.582h0.048V1.607h0.048V1.631h0.048V1.655H27.7V1.68h0.048V1.7H27.8V1.728h0.048V1.753H27.9V1.777h0.048l0.024,0.049,0.1,0.024V1.875H28.11V1.9h0.048V1.923h0.048l0.024,0.049h0.048V2h0.048V2.021h0.048V2.045H28.42V2.069h0.048l0.024,0.049h0.048V2.142h0.048L28.61,2.191,28.753,2.24l0.024,0.049,0.1,0.024L28.9,2.361l0.1,0.024,0.024,0.049,0.1,0.024V2.483l0.072,0.024,0.024,0.049L29.3,2.58V2.6l0.072,0.024L29.4,2.678h0.048l0.024,0.049h0.048V2.751l0.072,0.024,0.024,0.049h0.048V2.848l0.071,0.024,0.024,0.049H29.8L29.85,2.994H29.9V3.019l0.072,0.024,0.024,0.049h0.048L30.065,3.14l0.072,0.024V3.189a0.193,0.193,0,0,0,.1.049l0.024,0.073h0.024V3.359l0.048,0.024,0.024,0.1h0.024L30.4,3.554l0.048,0.024V3.627H30.47V3.676L30.518,3.7l0.024,0.1,0.048,0.024V3.871h0.024V3.919h0.024V3.968h0.024V4.017l0.048,0.024V4.09h0.024V4.138h0.024V4.187H30.78V4.236L30.828,4.26l0.024,0.1h0.024l0.024,0.1h0.024V4.5h0.024V4.552h0.024V4.6h0.024V4.65h0.024l0.024,0.1L31.09,4.771l0.048,0.146h0.024V4.966h0.024l0.048,0.146h0.024V5.185h0.024l0.024,0.1h0.024l0.048,0.146H31.4l0.048,0.146h0.024V5.648H31.5V5.7h0.024V5.745h0.024l0.048,0.146h0.024V5.964h0.024l0.024,0.1h0.024V6.135H31.71V6.183h0.024l0.024,0.1h0.024l0.1,0.292H31.9l0.024,0.1h0.024V6.743h0.024V6.792H32L32.02,6.938h0.024V6.987h0.024V7.06h0.024V7.109h0.024L32.139,7.23h0.024V7.3h0.024V7.352h0.024V7.425h0.024V7.474h0.024V7.547h0.024V7.6h0.024V7.668H32.33V7.717h0.024l0.024,0.146H32.4V7.936h0.024V7.985h0.024V8.058h0.024V8.131H32.5V8.2H32.52V8.277c0.3,0.691.481,1.482,0.739,2.215v0.1h0.024v0.073h0.024v0.1h0.024v0.073h0.024L33.379,11H33.4l0.048,0.268h0.024l0.048,0.268h0.024l0.048,0.292c0.081,0.241.138,0.536,0.215,0.779v0.122c0.142,0.446.195,0.982,0.334,1.436l0.024,0.268h0.024v0.122h0.024V14.68h0.024V14.8h0.024l0.1,0.706c0.109,0.367.107,0.843,0.215,1.217V16.9h0.024v0.17h0.024l0.024,0.389c0.084,0.3.059,0.7,0.143,1v0.219h0.024v0.243h0.024v0.243h0.024v0.268h0.024v0.268H34.9v0.268h0.024V20.3h0.024v0.341h0.024L35,21.131l-0.62.682-0.191.17-0.048.073-0.072.024-0.239.268H33.784l-0.1.122H33.641l-0.1.122-0.072.024-0.1.122-0.072.024-0.024.049H33.236l-0.072.1H33.117l-0.048.073H33.021l-0.048.073H32.926l-0.048.073H32.83l-0.024.049H32.759l-0.048.073H32.664L32.64,23.3l-0.072.024v0.024H32.52L32.5,23.4H32.449l-0.024.049H32.377l-0.024.049H32.306l-0.024.049H32.234l-0.024.049H32.163l-0.024.049H32.091l-0.024.049-0.1.024-0.024.049-0.1.024-0.024.049-0.1.024-0.024.049-0.1.024v0.024H31.567L31.543,24H31.5v0.024H31.448v0.024H31.4v0.024H31.352V24.1H31.3l-0.024.049H31.233v0.024H31.185V24.2H31.138v0.024H31.09v0.024H31.042v0.024H30.995V24.3l-0.1.024v0.024H30.852v0.024H30.8v0.024H30.756v0.024H30.708v0.024H30.661v0.024l-0.1.024v0.024H30.518v0.024H30.446v0.024H30.4v0.024l-0.1.024v0.024H30.232v0.024H30.184v0.024l-0.1.024v0.024H30.017v0.024H29.969v0.024H29.9v0.024H29.85v0.024l-0.119.024V24.88H29.659V24.9H29.612v0.024H29.54v0.024H29.493v0.024l-0.215.049v0.024H29.23v0.024l-0.215.049v0.024H28.944v0.024H28.873V25.2H28.8v0.024H28.73v0.024l-0.31.073v0.024l-0.143.024v0.024h-0.1v0.024h-0.1V25.44h-0.1v0.024H27.9v0.024H27.824v0.024h-0.1v0.024h-0.1v0.024h-0.1v0.024h-0.1v0.024l-0.215.024v0.024l-0.334.049v0.024H26.751v0.024H26.631v0.024H26.488v0.024H26.345V25.83H26.2v0.024H26.035v0.024H25.869V25.9H25.7v0.024H25.463v0.024L24.629,26V25.951a0.525,0.525,0,0,1-.143-0.195l-0.072-.049V25.659l-0.072-.049V25.562l-0.072-.049V25.464l-0.048-.024L24.2,25.367l-0.072-.049V25.27l-0.048-.024-0.024-.073-0.072-.049V25.075l-0.072-.049V24.978l-0.072-.049V24.88l-0.072-.049V24.783L23.7,24.734V24.685l-0.071-.049V24.588l-0.072-.049V24.491l-0.072-.049V24.393l-0.048-.024L23.413,24.3H23.389a0.2,0.2,0,0,1-.048-0.1,14.252,14.252,0,0,0,2.79-1.315l0.143-.049,0.024-.049,0.1-.024,0.024-.049,0.1-.024,0.024-.049,0.1-.024V22.592l0.072-.024,0.024-.049,0.1-.024,0.024-.049h0.048l0.024-.049h0.048V22.373l0.072-.024,0.024-.049h0.048V22.275l0.072-.024L27.2,22.2h0.048l0.048-.073h0.048l0.024-.049h0.048l0.048-.073h0.048l0.024-.049h0.048l0.048-.073h0.048l0.048-.073h0.048l0.048-.073h0.048l0.048-.073h0.048l0.024-.049h0.024l0.024-.049h0.048l0.072-.1h0.048l0.1-.122h0.048l0.072-.1h0.048l0.119-.146h0.048l0.167-.195h0.048l0.024-.049,0.1-.073,0.167-.195h0.048l0.119-.146,0.429-.414V19.987l0.072-.049a1.664,1.664,0,0,0,.262-0.316H30.041a0.53,0.53,0,0,1-.191.146l-0.048.073H29.755l-0.024.049H29.683l-0.024.049H29.612l-0.048.073H29.516l-0.024.049-0.072.024v0.024H29.373l-0.024.049H29.3l-0.024.049H29.23l-0.024.049H29.159l-0.024.049H29.087l-0.024.049-0.072.024V20.4l-0.1.024-0.024.049H28.825l-0.024.049H28.753l-0.024.049H28.682l-0.024.049-0.143.049-0.024.049-0.1.024-0.024.049-0.1.024-0.024.049-0.143.049-0.024.049-0.1.024v0.024H27.943v0.024H27.9l-0.024.049H27.824v0.024H27.776v0.024H27.728v0.024H27.681V21.18l-0.1.024-0.024.049H27.514v0.024H27.466V21.3H27.418v0.024H27.371V21.35H27.323v0.024H27.275V21.4H27.228v0.024H27.18v0.024H27.132v0.024H27.085V21.5l-0.1.024v0.024H26.941v0.024H26.87v0.024H26.822v0.024H26.775v0.024H26.727v0.024l-0.143.049V21.74H26.512v0.024l-0.1.024v0.024H26.345v0.024l-0.1.024v0.024H26.179V21.91H26.131v0.024l-0.1.024v0.024H25.964v0.024H25.916v0.024l-0.143.024v0.024H25.725V22.1H25.654v0.024H25.606v0.024l-0.143.024V22.2H25.416v0.024H25.344v0.024H25.3v0.024l-0.215.049v0.024H25.01v0.024H24.939V22.4H24.867v0.024H24.8v0.024H24.724V22.47H24.653v0.024l-0.143.024v0.024l-0.143.024v0.024h-0.1v0.024H24.2V22.64l-0.167.024v0.024l-0.167.024v0.024l-0.167.024v0.024H23.6v0.024h-0.1v0.024h-0.1V22.86h-0.1c-0.366.127-.81,0.174-1.192,0.292l-0.381.049v0.024l-0.334.024c-0.193.058-.45,0.065-0.644,0.122H20.552V23.4H20.313V23.42l-0.453.024v0.024l-0.453.024H19.169v0.024H18.787a3.606,3.606,0,0,1-.787.024H17.881v0.024H17.119V23.541H16.212V23.517l-0.5-.024H15.45V23.468H15.14V23.444H14.9V23.42H14.687V23.4H14.448c-0.21-.062-0.488-0.061-0.691-0.122l-0.5-.049c-0.109-.034-0.27-0.062-0.382-0.1H12.755c-0.342-.11-0.743-0.153-1.073-0.268h-0.1V22.835h-0.1V22.811H11.4V22.787H11.3V22.762l-0.334-.073c-0.294-.109-0.623-0.2-0.906-0.317H9.99V22.348H9.918V22.324H9.847V22.3H9.775V22.275H9.7V22.251H9.656V22.227L9.537,22.2V22.178l-0.143-.024V22.129H9.346V22.1H9.275V22.081H9.227V22.056l-0.143-.024V22.008H9.036V21.983H8.965V21.959l-0.1-.024V21.91H8.822V21.886H8.75V21.861l-0.1-.024V21.813H8.583V21.788l-0.1-.024V21.74H8.416V21.715H8.369V21.691H8.321V21.667H8.273V21.642L8.13,21.594V21.569H8.059V21.545H8.011V21.521l-0.1-.024V21.472H7.868V21.448H7.82V21.423H7.772V21.4H7.725V21.375H7.677V21.35H7.629V21.326H7.582V21.3H7.534V21.277H7.486V21.253H7.439L7.415,21.2H7.367V21.18H7.319V21.155H7.272V21.131H7.224V21.107l-0.1-.024L7.1,21.034H7.057V21.009H7.01V20.985H6.962V20.961H6.914L6.89,20.912l-0.143-.049-0.024-.049-0.1-.024L6.6,20.742l-0.1-.024-0.024-.049L6.342,20.62l-0.024-.049H6.27l-0.024-.049H6.2l-0.024-.049H6.127L6.1,20.425l-0.1-.024-0.024-.049H5.937V20.328L5.865,20.3l-0.024-.049H5.794L5.77,20.206H5.722L5.7,20.157H5.65l-0.024-.049H5.579V20.084L5.507,20.06l-0.024-.049H5.436l-0.048-.073H5.341V19.914L5.269,19.89l-0.024-.049H5.2L5.15,19.768H5.1l-0.048-.073H5.007V19.67l-0.072-.049v0.024a0.824,0.824,0,0,1,.143.17l0.191,0.17v0.049l0.072,0.049,0.167,0.195L5.746,20.5l0.072,0.1L5.889,20.62l0.262,0.292H6.2l0.1,0.122,0.072,0.049v0.024H6.413l0.119,0.146H6.58l0.072,0.1H6.7l0.1,0.122H6.843l0.072,0.1H6.962l0.072,0.1H7.081L7.129,21.74,7.2,21.764l0.024,0.049H7.272l0.048,0.073L7.391,21.91l0.024,0.049H7.463l0.024,0.049H7.534l0.048,0.073H7.629l0.024,0.049H7.7L7.749,22.2H7.8L7.82,22.251l0.072,0.024V22.3H7.939l0.024,0.049H8.011L8.035,22.4H8.082l0.024,0.049L8.178,22.47v0.024l0.1,0.024v0.024l0.072,0.024,0.024,0.049,0.1,0.024,0.024,0.049,0.1,0.024,0.024,0.049,0.1,0.024,0.024,0.049,0.143,0.049,0.024,0.049,0.143,0.049L9.06,23.03H9.108v0.024H9.155v0.024H9.2V23.1H9.251v0.024H9.3l0.024,0.049H9.37V23.2H9.418v0.024H9.465v0.024H9.513v0.024H9.561V23.3H9.608v0.024l0.1,0.024v0.024H9.751V23.4H9.8V23.42H9.847v0.024H9.894v0.024l0.1,0.024v0.024h0.048v0.024h0.072v0.024h0.048V23.59L10.3,23.639v0.024h0.072v0.024h0.048v0.024l0.1,0.024V23.76h0.072v0.024h0.048v0.024h0.072v0.024l0.1,0.024v0.024h0.072v0.024H10.92v0.024h0.071v0.024h0.048v0.024L11.182,24v0.024H11.23v0.024L11.659,24.2v0.049a0.527,0.527,0,0,0-.143.195l-0.071.049v0.049l-0.072.049v0.049l-0.072.049v0.049l-0.048.024-0.024.073-0.072.049v0.049l-0.048.024-0.024.073-0.072.049v0.049l-0.072.049v0.049l-0.072.049v0.049l-0.072.049v0.049l-0.072.049v0.049l-0.072.049v0.049l-0.071.049v0.049l-0.072.049v0.049l-0.048.024-0.024.073H10.419a0.2,0.2,0,0,0-.048.1l-0.834-.049V25.927H9.3V25.9H9.131V25.878H8.965V25.854l-0.31-.024V25.805l-0.286-.024V25.757l-0.262-.024V25.708h-0.1V25.683H7.892V25.659H7.772V25.635h-0.1V25.611H7.558V25.586h-0.1V25.562h-0.1V25.537h-0.1V25.513h-0.1V25.489H7.1V25.464H7.01V25.44h-0.1V25.416h-0.1V25.391h-0.1V25.367L6.58,25.343V25.318H6.509V25.294H6.437V25.27H6.366V25.245L6.127,25.2V25.172l-0.143-.024V25.124L5.77,25.075V25.051H5.722V25.026l-0.215-.049A13.711,13.711,0,0,1,3.7,24.1H3.648V24.077H3.6V24.052H3.552V24.028H3.5V24H3.457l-0.024-.049L3.29,23.906l-0.024-.049-0.1-.024-0.024-.049-0.1-.024-0.024-.049H2.98V23.687H2.933l-0.024-.049H2.861V23.614L2.789,23.59l-0.024-.049H2.718l-0.024-.049H2.646l-0.024-.049H2.575L2.551,23.4H2.5L2.48,23.346H2.432V23.322L2.36,23.3l-0.024-.049H2.289l-0.048-.073H2.193L2.17,23.127H2.122L2.1,23.079l-0.072-.024-0.048-.073H1.931l-0.024-.049-0.072-.024-0.072-.1H1.717l-0.048-.073H1.621l-0.1-.122H1.478L1.359,22.47H1.311l-0.1-.122H1.168l-0.262-.292H0.858L0.739,21.91l-0.405-.389V21.472L0.1,21.253V21.2L0,21.131V20.985a1.224,1.224,0,0,0,.024-0.341H0.048V20.3H0.072V19.963H0.1V19.695H0.119V19.427H0.143V19.159c0.078-.276.043-0.651,0.119-0.925V18.015H0.286V17.82H0.31V17.625H0.334v-0.17H0.358V17.26H0.381V17.066H0.405V16.9H0.429V16.725H0.453l0.024-.316c0.094-.325.1-0.729,0.191-1.047l0.072-.56H0.763V14.68H0.787V14.558H0.811V14.436H0.834V14.29C0.952,13.9,1,13.432,1.121,13.049l0.072-.438c0.078-.243.134-0.537,0.215-0.779l0.048-.292H1.478V11.466H1.5L1.55,11.2H1.574l0.048-.268H1.645l0.024-.17H1.693v-0.1c0.239-.672.4-1.409,0.668-2.045V8.545H2.384V8.472H2.408V8.4H2.432V8.326H2.456V8.277H2.48L2.5,8.131H2.527l0.024-.146H2.575V7.936H2.6V7.863H2.623l0.024-.146H2.67V7.668H2.694V7.6H2.718V7.547H2.742l0.024-.122H2.789V7.352H2.813V7.3H2.837V7.23H2.861V7.182H2.885V7.109H2.909V7.06H2.933V6.987H2.956V6.938H2.98L3,6.792H3.028V6.743H3.052V6.67H3.076l0.024-.1H3.123l0.1-.292H3.243V6.232H3.266l0.024-.1H3.314V6.062H3.338l0.024-.1H3.386V5.891H3.409V5.843H3.433V5.794H3.457L3.5,5.648H3.529V5.575H3.552L3.6,5.429H3.624l0.048-.146H3.7l0.024-.1H3.743V5.112H3.767l0.048-.146H3.839V4.918H3.862L3.91,4.771l0.048-.024V4.7H3.982V4.65H4.005V4.6H4.029V4.552H4.053V4.5H4.077V4.455H4.1V4.406H4.125V4.358H4.149V4.309H4.172V4.26L4.22,4.236V4.187H4.244V4.138H4.268V4.09H4.292V4.041l0.048-.024V3.968H4.363V3.919H4.387V3.871H4.411V3.822L4.458,3.8l0.024-.1L4.53,3.676V3.627H4.554V3.579H4.578L4.6,3.506l0.048-.024,0.024-.1,0.048-.024V3.311H4.745l0.024-.073H4.816a0.535,0.535,0,0,1,.191-0.146l0.024-.049H5.078L5.126,2.97H5.174L5.2,2.921H5.245l0.048-.073H5.341L5.364,2.8l0.072-.024V2.751H5.484L5.507,2.7H5.555l0.024-.049H5.627L5.65,2.6l0.1-.024V2.556l0.072-.024,0.024-.049,0.1-.024V2.434L6.008,2.41l0.024-.049,0.1-.024,0.024-.049L6.294,2.24l0.024-.049,0.143-.049,0.024-.049,0.1-.024V2.045H6.628L6.652,2H6.7V1.972H6.747V1.947H6.795V1.923H6.843V1.9H6.89L6.914,1.85H6.962V1.826H7.01V1.8H7.057V1.777H7.1V1.753H7.153V1.728H7.2V1.7L7.3,1.68V1.655H7.343V1.631H7.391V1.607H7.439V1.582H7.486V1.558H7.534V1.534l0.1-.024V1.485H7.677V1.461H7.749V1.436H7.8V1.412l0.143-.049V1.339H8.011V1.315H8.059V1.29L8.2,1.242V1.217H8.273V1.193H8.321V1.168H8.392V1.144L8.512,1.12V1.1l0.1-.024V1.047H8.678V1.022H8.726V1l0.119-.024V0.949L9.06,0.9V0.876H9.108V0.852L9.322,0.8V0.779H9.37V0.755L9.513,0.73V0.706H9.584V0.682H9.656V0.657H9.727V0.633l0.238-.049V0.56h0.1V0.536h0.072V0.511H10.2V0.487h0.072V0.463l0.191-.024c0.243-.085.539-0.138,0.787-0.219l0.525-.073V0.122ZM12.064,11.393a0.922,0.922,0,0,1-.286.049v0.024H11.706v0.024H11.635v0.024l-0.167.024v0.024l-0.1.024v0.024l-0.215.073-0.024.049-0.143.049-0.024.049H10.92l-0.048.073H10.824l-0.024.049H10.753l-0.119.146H10.586l-0.024.049-0.1.073V12.27l-0.167.146v0.049l-0.1.073v0.049l-0.048.024-0.024.073H10.109v0.049l-0.048.024-0.048.146-0.048.024-0.024.1H9.918l-0.024.1H9.871v0.073H9.847l-0.024.1H9.8l-0.024.146H9.751v0.073H9.727v0.073H9.7v0.073H9.68v0.1H9.656l-0.024.219H9.608v0.195H9.584v0.268H9.561l0.024,0.633H9.608v0.195H9.632v0.122H9.656L9.68,15.58H9.7v0.073H9.727v0.073H9.751v0.1H9.775V15.9H9.8v0.049H9.823l0.024,0.122H9.871l0.048,0.146H9.942v0.049H9.966l0.048,0.146h0.024l0.024,0.073,0.048,0.024,0.024,0.1,0.048,0.024v0.049l0.1,0.073V16.8l0.1,0.073V16.92l0.191,0.17,0.072,0.1h0.048l0.1,0.122h0.048l0.048,0.073H10.92l0.024,0.049h0.048l0.024,0.049h0.048V17.5H11.11v0.024h0.048v0.024h0.048a1.948,1.948,0,0,0,1.073.292H12.66V17.82h0.119V17.8H12.9V17.771h0.1V17.747h0.072V17.723h0.1V17.7h0.048V17.674l0.119-.024V17.625l0.143-.049V17.552l0.143-.049,0.024-.049h0.048V17.431l0.072-.024,0.024-.049h0.048l0.048-.073h0.048l0.119-.146h0.048l0.024-.049,0.1-.073V16.968l0.167-.146,0.024-.073,0.072-.049V16.652l0.048-.025,0.024-.073h0.024l0.024-.1,0.048-.024,0.048-.146H14.71V16.238l0.048-.024,0.024-.122h0.024l0.024-.1h0.024l0.024-.122H14.9l0.024-.171h0.024V15.629h0.024V15.556H15V15.434H15.02v-0.1h0.024V15.191h0.024v-0.17A2.9,2.9,0,0,0,15,13.8V13.682H14.973V13.609H14.949V13.536H14.925V13.463H14.9l-0.024-.146H14.854V13.268H14.83V13.195H14.806l-0.048-.146H14.734V13H14.71V12.951H14.687l-0.048-.146-0.048-.024V12.732l-0.048-.024V12.659L14.5,12.635V12.586l-0.048-.024-0.024-.073-0.072-.049V12.391l-0.191-.17L13.971,12H13.924l-0.072-.1H13.8l-0.024-.049-0.072-.024V11.807H13.661l-0.024-.049-0.143-.049-0.024-.049-0.286-.1V11.539H13.137V11.515h-0.1V11.491H12.97V11.466h-0.1A2.657,2.657,0,0,0,12.064,11.393Zm10.324,0a0.839,0.839,0,0,1-.262.049v0.024h-0.1v0.024H21.958v0.024h-0.1v0.024H21.815v0.024H21.744v0.024l-0.1.024v0.024l-0.119.024-0.024.049-0.143.049-0.024.049H21.291v0.024l-0.072.024L21.2,11.9H21.148l-0.072.1A3.251,3.251,0,0,0,20,13.682V13.8a3.011,3.011,0,0,0-.048,1.388v0.146H19.98L20,15.556h0.024v0.073h0.024V15.7h0.024L20.1,15.873h0.024l0.024,0.122H20.17l0.024,0.1h0.024l0.024,0.122,0.048,0.024v0.049h0.024l0.048,0.146h0.024l0.024,0.073,0.048,0.024,0.024,0.1,0.048,0.025V16.7L20.6,16.749l0.024,0.073,0.167,0.146v0.049l0.048,0.024,0.072,0.1h0.048l0.119,0.146h0.048l0.048,0.073h0.048l0.024,0.049,0.071,0.024v0.024h0.048L21.386,17.5h0.048v0.024h0.048v0.024h0.048v0.024h0.048a2.065,2.065,0,0,0,1.049.268h0.358l0.5-.122V17.7l0.119-.024V17.65h0.048V17.625h0.072V17.6H23.77l0.024-.049h0.048V17.528H23.89V17.5h0.048V17.479h0.048l0.024-.049h0.048l0.024-.049h0.048l0.048-.073h0.048l0.1-.122h0.048l0.167-.195,0.1-.073V16.871l0.1-.073V16.749l0.048-.024V16.7l0.048-.024V16.627l0.048-.024,0.024-.1,0.048-.024,0.024-.073h0.024l0.048-.146h0.024V16.213h0.024l0.048-.146h0.024V15.994h0.024l0.024-.1h0.024l0.024-.171h0.024V15.654H25.3V15.58H25.32l0.024-.195h0.024V15.264h0.024V15.069h0.024V14.8h0.024V14.436H25.416V14.169H25.392V13.974H25.368l-0.024-.219H25.32v-0.1H25.3V13.584H25.273V13.511H25.249V13.438H25.225V13.365H25.2V13.292H25.177V13.243H25.153l-0.024-.122H25.106l-0.024-.1H25.058l-0.024-.1L24.986,12.9l-0.048-.146-0.048-.024V12.684H24.867l-0.024-.073L24.8,12.586V12.537l-0.1-.073V12.416l-0.167-.146V12.221L24.486,12.2l-0.072-.1H24.367l-0.119-.146H24.2L24.176,11.9H24.128l-0.048-.073H24.033l-0.024-.049-0.143-.049-0.024-.049-0.214-.073V11.588l-0.1-.024V11.539l-0.167-.024V11.491H23.294V11.466H23.222V11.442H23.079A2.628,2.628,0,0,0,22.388,11.393Z"/>
  </g>
</svg>
