<svg id="Twitch" xmlns="http://www.w3.org/2000/svg" width="27" height="28" viewBox="0 0 27 28">
  <metadata><?xpacket begin="﻿" id="W5M0MpCehiHzreSzNTczkc9d"?>
<x:xmpmeta xmlns:x="adobe:ns:meta/" x:xmptk="Adobe XMP Core 5.6-c142 79.160924, 2017/07/13-01:06:39        ">
   <rdf:RDF xmlns:rdf="http://www.w3.org/1999/02/22-rdf-syntax-ns#">
      <rdf:Description rdf:about=""/>
   </rdf:RDF>
</x:xmpmeta>
                                                                                                    
                                                                                                    
                                                                                                    
                                                                                                    
                                                                                                    
                                                                                                    
                                                                                                    
                                                                                                    
                                                                                                    
                                                                                                    
                                                                                                    
                                                                                                    
                                                                                                    
                                                                                                    
                                                                                                    
                                                                                                    
                                                                                                    
                                                                                                    
                                                                                                    
                                                                                                    
                           
<?xpacket end="w"?></metadata>
<defs>
    <style>
      .cls-1 {
        fill: #fff;
        fill-rule: evenodd;
      }
    </style>
  </defs>
  <g id="_14px_Padding" data-name="14px Padding">
    <path class="cls-1" d="M27,0V17.049l-5.664,5.6-1.7,1.7H14.106L10.447,28h-3.7a1.329,1.329,0,0,1-.022-0.372V24.372a0.038,0.038,0,0,0,.022-0.022H0V4.809H0.022V4.743H0.044V4.7H0.066l0.022-.131H0.11V4.525H0.132l0.022-.131H0.176V4.35H0.2L0.22,4.219H0.242V4.175H0.264V4.109H0.287V4.044H0.309V4H0.331l0.022-.131H0.375V3.825H0.4l0.022-.131H0.441V3.65H0.463l0.022-.131H0.507V3.475H0.529l0.022-.131H0.573V3.3H0.6l0.022-.131H0.639V3.126H0.661l0.022-.131H0.705V2.951H0.727L0.749,2.82H0.771V2.776H0.793V2.71H0.815V2.645C1.07,2.069,1.267,1.429,1.521.852l0.022-.131H1.565V0.677H1.587l0.022-.131H1.631V0.5H1.653l0.022-.131H1.7V0.328H1.719V0.262H1.741L1.829,0H27ZM4.32,2.448V20.066H9.83v3.607H9.852l3.615-3.607h6.767a0.671,0.671,0,0,1,.132-0.131l0.309-.306,0.154-.175,0.793-.765,0.6-.612,1.389-1.355,0.154-.175,0.463-.437a1.618,1.618,0,0,1,.287-0.284V2.448H4.32ZM11.02,7.3h2.491v7.322H11.02V7.3Zm6.745,0h2.491v7.322H17.765V7.3Z"/>
  </g>
</svg>
