<svg id="Youtube" xmlns="http://www.w3.org/2000/svg" width="33" height="23" viewBox="0 0 33 23">
  <metadata><?xpacket begin="﻿" id="W5M0MpCehiHzreSzNTczkc9d"?>
<x:xmpmeta xmlns:x="adobe:ns:meta/" x:xmptk="Adobe XMP Core 5.6-c142 79.160924, 2017/07/13-01:06:39        ">
   <rdf:RDF xmlns:rdf="http://www.w3.org/1999/02/22-rdf-syntax-ns#">
      <rdf:Description rdf:about=""/>
   </rdf:RDF>
</x:xmpmeta>
                                                                                                    
                                                                                                    
                                                                                                    
                                                                                                    
                                                                                                    
                                                                                                    
                                                                                                    
                                                                                                    
                                                                                                    
                                                                                                    
                                                                                                    
                                                                                                    
                                                                                                    
                                                                                                    
                                                                                                    
                                                                                                    
                                                                                                    
                                                                                                    
                                                                                                    
                                                                                                    
                           
<?xpacket end="w"?></metadata>
<defs>
    <style>
      .cls-1 {
        fill: #fff;
        fill-rule: evenodd;
      }
    </style>
  </defs>
  <g id="_14px_Padding" data-name="14px Padding">
    <path id="Icon" class="cls-1" d="M31.371,21.357a1.137,1.137,0,0,0-.539.445h-0.18l-0.09.178h-0.18v0.089l-0.539.178v0.089l-0.539.089v0.089l-3.326.267H24.449v0.089H21.483a14.181,14.181,0,0,1-3.146.089h-6.2V22.869H8.719V22.78H8.449A15.825,15.825,0,0,1,5.3,22.6H4.584l-1.528-.356V22.157L2.7,22.068V21.979H2.517L2.427,21.8H2.247l-0.09-.178H1.977l-0.09-.178L1.438,21.09V20.912l-0.18-.089V20.645H1.169V20.467H1.079V20.289H0.989V20.111H0.9V19.933H0.809L0.719,19.4H0.629V19.132H0.539V18.776H0.449V18.42H0.36V17.8H0.27V17H0.18V15.928H0.09v-1.6H0V9.521L0.09,7.03H0.18V6.051H0.27V5.161H0.36V4.627h0.09V4.182h0.09V3.826h0.09V3.559h0.09l0.09-.534H0.9l0.18-.534h0.09l0.09-.356,0.27-.178V1.78L1.8,1.6V1.513h0.18l0.27-.356h0.18l0.09-.178H2.7V0.89l0.539-.178V0.623h0.27V0.534h0.36V0.445H4.4V0.356l2.7-.089V0.178H9.438A10.713,10.713,0,0,1,11.775.089L15.011,0h4.854V0.089h0.9A12.992,12.992,0,0,1,23.64.178h2.337V0.267H27.6V0.356h1.079V0.445h0.45L30.382,0.89l0.09,0.178h0.18l0.989,0.89c1.588,2.226,1.348,7.028,1.348,10.856q-0.045,1.869-.09,3.737h-0.09V17.53h-0.09v0.623h-0.09V18.6h-0.09v0.445h-0.09V19.31h-0.09v0.267H32.27v0.267H32.18v0.178H32.09v0.267H32v0.178H31.91v0.178l-0.18.089v0.178H31.64A0.983,0.983,0,0,0,31.371,21.357Zm-9.438-9.788V11.39a2.871,2.871,0,0,1-.9-0.445h-0.18l-0.09-.178h-0.18V10.678H20.4V10.589h-0.18V10.5h-0.18V10.411h-0.18V10.322h-0.18V10.233h-0.18V10.144h-0.18V10.055h-0.18V9.966l-0.36-.089L18.7,9.7l-0.36-.089V9.521h-0.18V9.432h-0.18V9.343H17.8V9.254h-0.18V9.165l-0.359-.089V8.988L16.719,8.81l-0.09-.178h-0.18V8.543H16.27V8.454H16.09V8.365H15.91V8.276H15.73V8.187h-0.18V8.1h-0.18V8.009h-0.18V7.92h-0.18V7.831h-0.18V7.742h-0.18l-0.09-.178L14.2,7.475V7.386h-0.18V7.3h-0.18V7.208c-0.2-.105-0.435-0.177-0.629-0.267v9.077H13.3a0.715,0.715,0,0,1,.36-0.178V15.75h0.18V15.661h0.18V15.572H14.2l0.09-.178,0.36-.089V15.217h0.18V15.128h0.18V15.039h0.18V14.95h0.18V14.861h0.18V14.772h0.18V14.683h0.18V14.594h0.18l0.09-.178h0.18V14.327h0.18V14.238h0.18V14.149H16.9V14.06h0.18V13.971h0.18V13.882h0.18V13.793h0.18V13.7H17.8V13.615h0.18V13.526h0.18l0.09-.178h0.18V13.259h0.18V13.17h0.18V13.081h0.18V12.992h0.18V12.9h0.18V12.814h0.18V12.725h0.18V12.636h0.18V12.547h0.18l0.09-.178,0.539-.178A5.143,5.143,0,0,1,21.933,11.568Z"/>
  </g>
</svg>
