<svg id="Twitter" xmlns="http://www.w3.org/2000/svg" width="31" height="26" viewBox="0 0 31 26">
  <metadata><?xpacket begin="﻿" id="W5M0MpCehiHzreSzNTczkc9d"?>
<x:xmpmeta xmlns:x="adobe:ns:meta/" x:xmptk="Adobe XMP Core 5.6-c142 79.160924, 2017/07/13-01:06:39        ">
   <rdf:RDF xmlns:rdf="http://www.w3.org/1999/02/22-rdf-syntax-ns#">
      <rdf:Description rdf:about=""/>
   </rdf:RDF>
</x:xmpmeta>
                                                                                                    
                                                                                                    
                                                                                                    
                                                                                                    
                                                                                                    
                                                                                                    
                                                                                                    
                                                                                                    
                                                                                                    
                                                                                                    
                                                                                                    
                                                                                                    
                                                                                                    
                                                                                                    
                                                                                                    
                                                                                                    
                                                                                                    
                                                                                                    
                                                                                                    
                                                                                                    
                           
<?xpacket end="w"?></metadata>
<defs>
    <style>
      .cls-1 {
        fill: #fff;
        fill-rule: evenodd;
      }
    </style>
  </defs>
  <g id="_14px_Padding" data-name="14px Padding">
    <path id="Icon" class="cls-1" d="M30.156,0.478A0.636,0.636,0,0,1,30.1.7H30.075l-0.027.168H30.02V0.927H29.993V1.011H29.966V1.067H29.939l-0.027.14H29.884l-0.054.168H29.8V1.432H29.775V1.488H29.748V1.544H29.721V1.6H29.694V1.656l-0.055.028-0.054.168-0.055.028L29.5,1.993l-0.054.028V2.077H29.421l-0.027.084-0.055.028V2.245L29.258,2.3V2.358l-0.082.056V2.47l-0.082.056V2.582l-0.082.056-0.027.084-0.218.2V2.975L28.523,3.2l-0.082.112H28.387l-0.163.2H28.169l-0.109.14H28.006l-0.054.084H27.9l-0.054.084H27.788a1.121,1.121,0,0,1-.326.224V4.069h0.163l1.034-.2V3.845h0.109V3.816h0.109V3.788h0.109V3.76h0.109V3.732L29.313,3.7V3.676h0.082V3.648h0.082V3.62h0.109c0.476-.178.961-0.363,1.415-0.561V3.143a0.445,0.445,0,0,0-.109.168l-0.082.056V3.424l-0.054.028V3.508l-0.082.056V3.62l-0.082.056V3.732l-0.082.056V3.845L30.4,3.929V3.985l-0.109.084V4.125l-0.109.084V4.265l-0.163.14V4.462H29.993l-0.054.084-0.163.14V4.742l-0.517.505L29.04,5.5H28.986L28.8,5.724H28.741V5.752l-0.082.056L28.6,5.893H28.551l-0.109.14H28.387l-0.082.112H28.251l-0.082.112H28.115l-0.054.084H28.006l-0.054.084H27.9l-0.027.056H27.843V6.847a1.963,1.963,0,0,1,.027.589q-0.041.828-.082,1.655H27.761V9.343H27.734V9.6H27.707v0.2l-0.3,1.683H27.38l-0.054.337H27.3l-0.027.224H27.244l-0.054.309H27.162l-0.027.2H27.108v0.084H27.081V12.71H27.054v0.112H27.026v0.084H27v0.084H26.972v0.084H26.945v0.084H26.917v0.084H26.89v0.084H26.863v0.084H26.836l-0.054.252H26.754V13.72H26.727l-0.027.168H26.673v0.056H26.645l-0.027.168H26.591v0.056H26.564v0.084H26.536v0.056H26.509v0.084H26.482V14.45H26.455v0.084H26.428l-0.027.112H26.373V14.73H26.346l-0.027.112H26.291v0.084H26.264v0.056H26.237l-0.027.112H26.183v0.084H26.155v0.056H26.128v0.056H26.1l-0.054.168H26.019v0.084H25.992l-0.054.168H25.91v0.056H25.883v0.056H25.856v0.056H25.829v0.056H25.8v0.056H25.774v0.056H25.747v0.056l-0.054.028-0.054.168H25.611v0.056H25.584v0.056H25.557V16.47L25.5,16.5v0.056H25.475V16.61H25.448v0.056H25.421v0.056l-0.055.028-0.054.168-0.054.028-0.027.112-0.054.028-0.027.112-0.054.028-0.027.112-0.055.028v0.056l-0.054.028-0.027.112-0.054.028v0.056l-0.055.028v0.056l-0.054.028v0.056l-0.054.028V17.9H24.686l-0.027.084-0.054.028v0.056H24.577l-0.027.084-0.055.028v0.056l-0.082.056V18.35l-0.054.028v0.056l-0.082.056v0.056l-0.054.028V18.63l-0.082.056v0.056L24.06,18.8v0.056l-0.082.056v0.056l-0.109.084v0.056l-0.109.084v0.056l-0.109.084v0.056l-0.054.028-0.055.084H23.515v0.056l-0.136.112v0.056l-0.191.168a6.794,6.794,0,0,1-.735.814,5.136,5.136,0,0,1-.6.589l-0.218.252H21.583l-0.027.056H21.529l-0.082.112H21.392l-0.027.056-0.082.056v0.028H21.229L21.12,22H21.066l-0.082.112H20.93l-0.027.056H20.875l-0.027.056H20.794l-0.054.084H20.685l-0.055.084H20.576l-0.055.084H20.467l-0.054.084-0.082.028-0.027.056H20.249V22.67l-0.082.028-0.027.056H20.086l-0.054.084H19.977l-0.027.056-0.082.028v0.028H19.814l-0.027.056H19.732l-0.027.056H19.651l-0.027.056H19.569l-0.027.056-0.109.028v0.028l-0.082.028-0.027.056H19.27v0.028H19.215l-0.027.056-0.109.028-0.027.056-0.109.028-0.027.056-0.163.056-0.027.056H18.671v0.028H18.616v0.028H18.562v0.028H18.507v0.028H18.453l-0.027.056H18.371v0.028H18.317V23.9H18.263v0.028H18.208v0.028H18.154v0.028H18.1v0.028l-0.109.028v0.028H17.936V24.1H17.881v0.028H17.827v0.028H17.773v0.028H17.718v0.028l-0.109.028v0.028H17.555V24.3H17.473v0.028H17.419v0.028l-0.163.056v0.028H17.174v0.028l-0.109.028v0.028H16.983V24.55H16.929v0.028H16.847v0.028l-0.109.028v0.028H16.657V24.69H16.6v0.028l-0.163.028v0.028H16.385V24.8l-0.163.028v0.028H16.167v0.028H16.085v0.028H16v0.028H15.922v0.028H15.84V25H15.759c-0.268.11-.593,0.206-0.871,0.309l-0.327.056v0.028l-0.544.112v0.028l-0.272.028c-0.264.085-.6,0.115-0.871,0.2H12.683c-0.257.077-.609,0.063-0.871,0.14h-0.3v0.028l-0.817.028a5.518,5.518,0,0,1-1.2.028,2.732,2.732,0,0,1-.626-0.028H8.41V25.925H8.083V25.9H7.811C7.505,25.805,7.1,25.82,6.8,25.728L6.478,25.7c-0.392-.124-0.85-0.177-1.225-0.309l-0.327-.056c-0.334-.124-0.712-0.232-1.034-0.365H3.81V24.943H3.729V24.915H3.647V24.887H3.565V24.858H3.511V24.83L3.348,24.8V24.774H3.293V24.746L3.13,24.718V24.69l-0.136-.028V24.634H2.939V24.606H2.858V24.578L2.749,24.55V24.522H2.667V24.494l-0.109-.028V24.438H2.477V24.41H2.422V24.382l-0.109-.028V24.325H2.232V24.3l-0.163-.056V24.213H2.014V24.185H1.96V24.157H1.905V24.129H1.851V24.1l-0.163-.056V24.017l-0.109-.028V23.961L1.47,23.933V23.9H1.415V23.877H1.361V23.848H1.306V23.82H1.252V23.792l-0.163-.056L1.061,23.68H1.007V23.652H0.953V23.624H0.9V23.6H0.844L0.816,23.54l-0.163-.056-0.027-.056L0.517,23.4,0.49,23.343l-0.109-.028-0.027-.056H0.3V23.231H0.245l-0.027-.056H0.163l-0.027-.056A0.465,0.465,0,0,1,0,23.063V23.007a10.008,10.008,0,0,0,1.143.084l0.435,0.028V23.091H2.341V23.063H2.694V23.035H2.967V23.007H3.184V22.979H3.375V22.951h0.19c0.128-.039.311-0.072,0.435-0.112l0.272-.028V22.782l0.245-.028V22.726H4.627V22.7H4.736V22.67H4.817V22.642H4.926V22.614H5.035V22.586H5.117V22.558H5.226V22.53H5.307V22.5H5.389V22.474H5.471V22.446H5.552V22.418H5.634V22.39H5.716V22.362l0.163-.028V22.305H5.933V22.277L6.1,22.249V22.221H6.151V22.193H6.233V22.165l0.136-.028V22.109H6.423V22.081H6.5V22.053H6.559V22.025L6.7,22V21.969H6.75V21.941H6.8V21.913l0.163-.056V21.828H7.049V21.8l0.163-.056V21.716H7.267V21.688l0.163-.056,0.027-.056H7.512V21.548H7.566V21.52H7.621V21.492H7.675V21.464H7.73l0.027-.056,0.163-.056L7.947,21.3l0.163-.056V21.211l0.082-.028,0.027-.056L8.328,21.1l0.027-.056H8.41V21.015l0.082-.028,0.027-.056H8.573L8.6,20.875H8.655V20.846l0.082-.028,0.027-.056H8.818l0.027-.056H8.9l0.054-.084H9.009l0.027-.056H9.09l0.054-.084H9.2L9.254,20.4H9.308a0.305,0.305,0,0,1,.054-0.056V20.313H8.927a0.778,0.778,0,0,0-.245-0.028V20.257H8.492V20.229H8.356V20.2H8.219V20.173H8.083V20.145H7.975V20.117H7.866V20.089H7.757V20.061H7.675V20.033H7.593V20H7.512V19.977H7.43V19.949l-0.163-.028V19.893H7.212V19.865H7.131V19.836H7.076V19.808H6.995V19.78l-0.163-.056V19.7H6.777V19.668H6.722V19.64H6.668V19.612H6.614V19.584H6.559V19.556H6.5V19.528H6.45V19.5H6.4V19.472H6.342l-0.027-.056-0.109-.028-0.027-.056H6.124L6.1,19.275H6.042l-0.027-.056H5.96l-0.027-.056H5.879l-0.027-.056H5.8L5.77,19.051l-0.082-.028-0.054-.084H5.579l-0.054-.084-0.082-.028-0.136-.168H5.253l-0.218-.253L4.79,18.181V18.125l-0.163-.14V17.929L4.572,17.9V17.873l-0.082-.056V17.76L4.409,17.7V17.648L4.355,17.62V17.564l-0.082-.056V17.452l-0.054-.028V17.368L4.164,17.34l-0.027-.084H4.11l-0.027-.112-0.054-.028-0.054-.168-0.054-.028L3.865,16.75H3.838V16.694H3.81l-0.054-.168H3.729V16.442a3.4,3.4,0,0,1-.272-0.7,2.735,2.735,0,0,1,.435.084l0.844,0.028H5.2V15.824H5.471V15.8H5.661l0.6-.14V15.628a1.183,1.183,0,0,1-.435-0.112L5.552,15.46V15.432L5.389,15.4V15.376l-0.136-.028V15.319H5.2V15.291H5.117V15.263l-0.109-.028V15.207H4.953V15.179H4.872V15.151l-0.163-.056V15.067L4.6,15.039l-0.027-.056H4.518V14.955H4.464V14.927H4.409V14.9H4.355V14.871l-0.082-.028-0.027-.056-0.109-.028L4.11,14.7H4.055l-0.027-.056H3.974l-0.054-.084H3.865l-0.027-.056H3.783l-0.054-.084H3.674L3.62,14.338l-0.082-.028L3.4,14.141H3.348l-0.163-.2L2.83,13.608V13.552l-0.163-.14V13.356l-0.109-.084-0.027-.084-0.054-.028V13.1l-0.054-.028V13.019l-0.082-.056V12.907l-0.054-.028V12.822l-0.054-.028L2.2,12.682a6.533,6.533,0,0,1-.98-3.563,0.694,0.694,0,0,1,.218.112L1.606,9.287V9.315L1.769,9.372V9.4H1.851V9.428L1.96,9.456V9.484H2.041V9.512H2.1V9.54L2.341,9.6a4.874,4.874,0,0,0,1.687.337V9.9a0.3,0.3,0,0,1-.054-0.056H3.919L3.892,9.792H3.838L3.756,9.68H3.7L3.62,9.568H3.565L3.429,9.4H3.375L3.157,9.147,2.912,8.923V8.867l-0.163-.14V8.67L2.613,8.558V8.5L2.531,8.446V8.39L2.477,8.362V8.305L2.4,8.249V8.193L2.341,8.165,2.313,8.081H2.286L2.259,7.969,2.2,7.941,2.177,7.857H2.15V7.8H2.123V7.744H2.1V7.688H2.068V7.632L2.014,7.6,1.987,7.492H1.96V7.436H1.932L1.878,7.267H1.851V7.183H1.824L1.8,7.071H1.769V6.987H1.742V6.931H1.715V6.847H1.687V6.79H1.66L1.633,6.622H1.606V6.538H1.579V6.454H1.551l-0.027-.2H1.5V6.145H1.47L1.442,5.921H1.415L1.388,5.612H1.361V5.444H1.334V5.219H1.306V4.855H1.279a2.861,2.861,0,0,1,.027-0.729V3.788H1.334l0.027-.421H1.388V3.227H1.415V3.087H1.442V2.947H1.47V2.835H1.5l0.027-.2H1.551V2.554H1.579V2.47H1.606V2.386H1.633V2.3H1.66l0.027-.168H1.715V2.077H1.742V1.993H1.769L1.8,1.881H1.824V1.8H1.851V1.74H1.878V1.684H1.905V1.628H1.932V1.572H1.96V1.516H1.987V1.46L2.15,1.179,2.232,1.235V1.291L2.368,1.4V1.46L2.531,1.6V1.656l0.218,0.2V1.909L3.075,2.217V2.273L3.538,2.722,3.729,2.947H3.783L3.974,3.171,4.082,3.255V3.283H4.137L4.327,3.508H4.382L4.518,3.676H4.572l0.109,0.14H4.736L4.763,3.873H4.79L4.817,3.929H4.872L4.953,4.041H5.008L5.035,4.1H5.062L5.09,4.153H5.144L5.2,4.237H5.253L5.307,4.321H5.362L5.416,4.406H5.471L5.525,4.49,5.607,4.518,5.634,4.574H5.688V4.6L5.77,4.63,5.8,4.686H5.852L5.906,4.77H5.96L5.988,4.826,6.069,4.855V4.883H6.124L6.151,4.939H6.205L6.233,4.995H6.287L6.314,5.051H6.369L6.4,5.107H6.45L6.478,5.163,6.586,5.191,6.614,5.247H6.668L6.7,5.3,6.8,5.331,6.831,5.388,6.94,5.416,6.967,5.472,7.076,5.5,7.1,5.556H7.158V5.584H7.212V5.612H7.267L7.294,5.668H7.349V5.7H7.4V5.724H7.457V5.752H7.512L7.539,5.808,7.975,6,8,6.061,8.111,6.089V6.117L8.219,6.145V6.173H8.3V6.2L8.41,6.229V6.257H8.464V6.285H8.519V6.313L8.682,6.37V6.4H8.764V6.426H8.818V6.454L8.927,6.482V6.51H9.009V6.538L9.118,6.566V6.594H9.2V6.622L9.308,6.65V6.678H9.39V6.706H9.444V6.734L9.58,6.762V6.79H9.662V6.818H9.716V6.847L9.88,6.875V6.9H9.934V6.931h0.082V6.959H10.1V6.987h0.082V7.015h0.082V7.043h0.082V7.071H10.4V7.1l0.272,0.056V7.183h0.082V7.211h0.082V7.239h0.082V7.267H11V7.3H11.1V7.323h0.082V7.352L11.377,7.38V7.408l0.218,0.028V7.464l0.218,0.028c0.34,0.119.761,0.17,1.116,0.281L13.255,7.8c0.155,0.048.386,0.065,0.544,0.112h0.218V7.941h0.245V7.969h0.272a2.92,2.92,0,0,0,.708.056l-0.136-.814V6.706H15.078V6.4h0.027V5.921h0.027l0.027-.449h0.027l0.027-.281c0.063-.21.117-0.452,0.191-0.645l0.054-.252h0.027V4.237h0.027l0.027-.168h0.027L15.6,3.957h0.027V3.873H15.65L15.7,3.7h0.027V3.648h0.027V3.592h0.027V3.536h0.027V3.48H15.84V3.424h0.027V3.368h0.027V3.311l0.054-.028,0.027-.112,0.054-.028,0.027-.112h0.027l0.027-.084,0.054-.028V2.863l0.054-.028V2.778L16.3,2.722V2.666l0.054-.028,0.027-.084L16.466,2.5V2.442l0.082-.056V2.358L16.6,2.329V2.273l0.218-.2V2.021l0.191-.168,0.054-.084h0.054l0.191-.224h0.054l0.027-.056h0.027L17.473,1.4h0.054l0.055-.084h0.054l0.054-.084h0.054L17.8,1.151h0.054L17.881,1.1h0.054l0.027-.056,0.082-.028V0.983l0.109-.028L18.181,0.9l0.163-.056,0.027-.056h0.054V0.758H18.48V0.73h0.054V0.7h0.054V0.674h0.054V0.646H18.7V0.618l0.163-.056V0.534h0.082V0.506l0.109-.028V0.45l0.163-.028A5.388,5.388,0,0,1,21.474,0a3.284,3.284,0,0,1,.844.056h0.191V0.085h0.136V0.113H22.78V0.141h0.136V0.169h0.109V0.2h0.109V0.225h0.109V0.253h0.082V0.281h0.082V0.309h0.082V0.338H23.57V0.366l0.163,0.028V0.422h0.055V0.45h0.082V0.478h0.055V0.506h0.082V0.534L24.169,0.59V0.618h0.054V0.646l0.136,0.028L24.386,0.73h0.054V0.758H24.5V0.786H24.55V0.814H24.6V0.842h0.054L24.686,0.9l0.109,0.028,0.027,0.056,0.109,0.028V1.039l0.082,0.028L25.04,1.123h0.054l0.054,0.084H25.2L25.23,1.263h0.054l0.082,0.112h0.055l0.027,0.056L25.529,1.46l0.136,0.168H25.72V1.656L25.8,1.712a0.74,0.74,0,0,0,.408.337l1.252-.337V1.684h0.082V1.656h0.082V1.628h0.082V1.6h0.082V1.572l0.163-.028V1.516h0.054V1.488l0.163-.028V1.432h0.054V1.4l0.163-.028V1.348L28.5,1.319V1.291h0.082V1.263l0.109-.028V1.207h0.082V1.179l0.109-.028V1.123h0.054V1.1l0.136-.028V1.039l0.109-.028V0.983l0.109-.028V0.927H29.34V0.9h0.055V0.871h0.054V0.842H29.5V0.814l0.163-.056L29.694,0.7h0.054V0.674H29.8V0.646h0.054V0.618h0.055l0.027-.056h0.054V0.534Z"/>
  </g>
</svg>
